<svg width="149" height="26" viewBox="0 0 149 26" fill="none" xmlns="http://www.w3.org/2000/svg">
<path d="M7.58398 14.8662H3.40527V13.1797H7.58398C8.39323 13.1797 9.0485 13.0508 9.5498 12.793C10.0511 12.5352 10.4163 12.1771 10.6455 11.7188C10.8818 11.2604 11 10.7376 11 10.1504C11 9.61328 10.8818 9.1084 10.6455 8.63574C10.4163 8.16309 10.0511 7.78353 9.5498 7.49707C9.0485 7.20345 8.39323 7.05664 7.58398 7.05664H3.88867V21H1.81543V5.35938H7.58398C8.76562 5.35938 9.76465 5.56348 10.5811 5.97168C11.3975 6.37988 12.0169 6.94564 12.4395 7.66895C12.862 8.38509 13.0732 9.20508 13.0732 10.1289C13.0732 11.1315 12.862 11.9873 12.4395 12.6963C12.0169 13.4053 11.3975 13.946 10.5811 14.3184C9.76465 14.6836 8.76562 14.8662 7.58398 14.8662ZM41.6367 16.2734L44.7412 5.35938H46.2451L45.375 9.60254L42.0342 21H40.541L41.6367 16.2734ZM38.4248 5.35938L40.8955 16.0586L41.6367 21H40.1543L36.3623 5.35938H38.4248ZM50.2627 16.0479L52.6797 5.35938H54.7529L50.9717 21H49.4893L50.2627 16.0479ZM46.4707 5.35938L49.4893 16.2734L50.585 21H49.0918L45.8691 9.60254L44.9883 5.35938H46.4707ZM61.2842 21H58.0186L58.04 19.3135H61.2842C62.4014 19.3135 63.3324 19.0807 64.0771 18.6152C64.8219 18.1426 65.3805 17.4837 65.7529 16.6387C66.1325 15.7865 66.3223 14.791 66.3223 13.6523V12.6963C66.3223 11.8011 66.2148 11.0062 66 10.3115C65.7852 9.6097 65.4701 9.01888 65.0547 8.53906C64.6393 8.05208 64.1309 7.68327 63.5293 7.43262C62.9349 7.18197 62.251 7.05664 61.4775 7.05664H57.9541V5.35938H61.4775C62.5016 5.35938 63.4362 5.53125 64.2812 5.875C65.1263 6.21159 65.8532 6.70215 66.4619 7.34668C67.0778 7.98405 67.5505 8.75749 67.8799 9.66699C68.2093 10.5693 68.374 11.5863 68.374 12.7178V13.6523C68.374 14.7839 68.2093 15.8044 67.8799 16.7139C67.5505 17.6162 67.0742 18.3861 66.4512 19.0234C65.8353 19.6608 65.0905 20.1514 64.2168 20.4951C63.3503 20.8317 62.3727 21 61.2842 21ZM59.125 5.35938V21H57.0518V5.35938H59.125ZM83.5312 12.6855V13.6738C83.5312 14.8483 83.3844 15.901 83.0908 16.832C82.7972 17.763 82.3747 18.5544 81.8232 19.2061C81.2718 19.8577 80.6094 20.3555 79.8359 20.6992C79.0697 21.043 78.2103 21.2148 77.2578 21.2148C76.334 21.2148 75.4854 21.043 74.7119 20.6992C73.9456 20.3555 73.2796 19.8577 72.7139 19.2061C72.1553 18.5544 71.722 17.763 71.4141 16.832C71.1061 15.901 70.9521 14.8483 70.9521 13.6738V12.6855C70.9521 11.5111 71.1025 10.4619 71.4033 9.53809C71.7113 8.6071 72.1445 7.81576 72.7031 7.16406C73.2617 6.50521 73.9242 6.00391 74.6904 5.66016C75.4639 5.31641 76.3125 5.14453 77.2363 5.14453C78.1888 5.14453 79.0482 5.31641 79.8145 5.66016C80.5879 6.00391 81.2503 6.50521 81.8018 7.16406C82.3604 7.81576 82.7865 8.6071 83.0801 9.53809C83.3809 10.4619 83.5312 11.5111 83.5312 12.6855ZM81.4795 13.6738V12.6641C81.4795 11.7331 81.3828 10.9095 81.1895 10.1934C81.0033 9.47721 80.7275 8.87565 80.3623 8.38867C79.9971 7.90169 79.5495 7.53288 79.0195 7.28223C78.4967 7.03158 77.9023 6.90625 77.2363 6.90625C76.5918 6.90625 76.0081 7.03158 75.4854 7.28223C74.9697 7.53288 74.5257 7.90169 74.1533 8.38867C73.7881 8.87565 73.5052 9.47721 73.3047 10.1934C73.1042 10.9095 73.0039 11.7331 73.0039 12.6641V13.6738C73.0039 14.612 73.1042 15.4427 73.3047 16.166C73.5052 16.8822 73.7917 17.4873 74.1641 17.9814C74.5436 18.4684 74.9912 18.8372 75.5068 19.0879C76.0296 19.3385 76.6133 19.4639 77.2578 19.4639C77.931 19.4639 78.529 19.3385 79.0518 19.0879C79.5745 18.8372 80.015 18.4684 80.373 17.9814C80.7383 17.4873 81.014 16.8822 81.2002 16.166C81.3864 15.4427 81.4795 14.612 81.4795 13.6738ZM92.4043 14.8662H88.2256V13.1797H92.4043C93.2135 13.1797 93.8688 13.0508 94.3701 12.793C94.8714 12.5352 95.2367 12.1771 95.4658 11.7188C95.7021 11.2604 95.8203 10.7376 95.8203 10.1504C95.8203 9.61328 95.7021 9.1084 95.4658 8.63574C95.2367 8.16309 94.8714 7.78353 94.3701 7.49707C93.8688 7.20345 93.2135 7.05664 92.4043 7.05664H88.709V21H86.6357V5.35938H92.4043C93.5859 5.35938 94.585 5.56348 95.4014 5.97168C96.2178 6.37988 96.8372 6.94564 97.2598 7.66895C97.6823 8.38509 97.8936 9.20508 97.8936 10.1289C97.8936 11.1315 97.6823 11.9873 97.2598 12.6963C96.8372 13.4053 96.2178 13.946 95.4014 14.3184C94.585 14.6836 93.5859 14.8662 92.4043 14.8662ZM106.294 5.35938V21H104.253V5.35938H106.294ZM111.321 5.35938V7.05664H99.2363V5.35938H111.321ZM115.865 5.35938V21H113.792V5.35938H115.865ZM131.678 12.6855V13.6738C131.678 14.8483 131.531 15.901 131.237 16.832C130.944 17.763 130.521 18.5544 129.97 19.2061C129.418 19.8577 128.756 20.3555 127.982 20.6992C127.216 21.043 126.357 21.2148 125.404 21.2148C124.48 21.2148 123.632 21.043 122.858 20.6992C122.092 20.3555 121.426 19.8577 120.86 19.2061C120.302 18.5544 119.868 17.763 119.561 16.832C119.253 15.901 119.099 14.8483 119.099 13.6738V12.6855C119.099 11.5111 119.249 10.4619 119.55 9.53809C119.858 8.6071 120.291 7.81576 120.85 7.16406C121.408 6.50521 122.071 6.00391 122.837 5.66016C123.61 5.31641 124.459 5.14453 125.383 5.14453C126.335 5.14453 127.195 5.31641 127.961 5.66016C128.734 6.00391 129.397 6.50521 129.948 7.16406C130.507 7.81576 130.933 8.6071 131.227 9.53809C131.527 10.4619 131.678 11.5111 131.678 12.6855ZM129.626 13.6738V12.6641C129.626 11.7331 129.529 10.9095 129.336 10.1934C129.15 9.47721 128.874 8.87565 128.509 8.38867C128.144 7.90169 127.696 7.53288 127.166 7.28223C126.643 7.03158 126.049 6.90625 125.383 6.90625C124.738 6.90625 124.155 7.03158 123.632 7.28223C123.116 7.53288 122.672 7.90169 122.3 8.38867C121.935 8.87565 121.652 9.47721 121.451 10.1934C121.251 10.9095 121.15 11.7331 121.15 12.6641V13.6738C121.15 14.612 121.251 15.4427 121.451 16.166C121.652 16.8822 121.938 17.4873 122.311 17.9814C122.69 18.4684 123.138 18.8372 123.653 19.0879C124.176 19.3385 124.76 19.4639 125.404 19.4639C126.077 19.4639 126.675 19.3385 127.198 19.0879C127.721 18.8372 128.161 18.4684 128.52 17.9814C128.885 17.4873 129.16 16.8822 129.347 16.166C129.533 15.4427 129.626 14.612 129.626 13.6738ZM146.813 5.35938V21H144.729L136.855 8.93652V21H134.782V5.35938H136.855L144.762 17.4551V5.35938H146.813Z" fill="#C1CAD6"/>
<path d="M24.8017 8.63623C24.8017 8.63623 31.3973 11.934 31.3973 18.438C31.3973 24.942 24.8017 18.438 24.8017 18.438C24.8017 18.438 18.2062 24.942 18.2062 18.438C18.2062 11.934 24.8017 8.63623 24.8017 8.63623Z" fill="#C1CAD6"/>
<ellipse cx="21.8704" cy="5.75581" rx="2.29013" ry="3.75581" fill="#C1CAD6"/>
<ellipse cx="17.2901" cy="10.3361" rx="2.29013" ry="3.75581" fill="#C1CAD6"/>
<ellipse cx="32.4966" cy="10.3361" rx="2.29013" ry="3.75581" fill="#C1CAD6"/>
<ellipse cx="27.7331" cy="5.75581" rx="2.29013" ry="3.75581" fill="#C1CAD6"/>
</svg>
